<svg width="19" height="16" viewBox="0 0 19 16" fill="none" xmlns="http://www.w3.org/2000/svg">
<g clip-path="url(#clip0_5569_129064)">
<path d="M9.32423 10.1108C11.4281 10.1108 13.5321 10.1108 15.6323 10.1052C15.7589 10.1052 15.7924 10.1496 15.7887 10.3384C15.7812 11.149 15.7849 11.9596 15.7849 12.7702C15.7849 13.1755 15.7328 13.2588 15.461 13.2588C12.4336 13.2588 9.40615 13.2588 6.37874 13.2588C5.30631 13.2588 4.23387 13.2588 3.16143 13.2588C2.91194 13.2588 2.85236 13.1699 2.85236 12.7924C2.85236 11.9707 2.85608 11.1434 2.84863 10.3218C2.84863 10.1496 2.8747 10.1052 2.99386 10.1052C5.10895 10.1163 7.21659 10.1108 9.32423 10.1108Z" fill="#00A32E"/>
<path d="M3.00098 9.45759C3.50368 8.83021 3.99149 8.2306 4.46441 7.61432C4.62825 7.3978 4.7921 7.32007 5.0118 7.32007C7.94611 7.33117 10.8804 7.32562 13.8147 7.32562C13.8967 7.32562 13.9637 7.34783 14.0307 7.43111C14.5483 8.08624 15.0659 8.73027 15.5872 9.37986C15.6021 9.39651 15.6208 9.40762 15.6208 9.45759C11.4241 9.45759 7.22743 9.45759 3.00098 9.45759Z" fill="#00A32E"/>
<path d="M9.33987 3.08929C10.3192 3.08929 11.2986 3.08929 12.2779 3.08929C12.9333 3.08929 13.4248 3.68891 13.544 4.6383C13.5849 4.94921 13.5552 5.27123 13.5589 5.59324C13.5626 5.90415 13.5552 6.21507 13.5626 6.52598C13.5626 6.63702 13.5477 6.68143 13.4658 6.68143C13.1493 6.67588 12.8327 6.67588 12.5199 6.68143C12.4306 6.68143 12.4082 6.63702 12.412 6.51487C12.4194 6.35387 12.412 6.19286 12.3822 6.04295C12.3077 5.68207 12.0954 5.44334 11.8273 5.43779C11.3507 5.42668 10.8703 5.42668 10.3937 5.43779C10.0437 5.44889 9.81279 5.82087 9.80534 6.36497C9.80161 6.67588 9.80161 6.67588 9.58936 6.67588C9.38083 6.67588 9.1723 6.67033 8.96377 6.67588C8.8744 6.68143 8.83344 6.65367 8.84461 6.50377C8.85578 6.34276 8.84461 6.18175 8.81482 6.03185C8.74407 5.68763 8.53554 5.43779 8.28605 5.43223C7.79451 5.42113 7.30298 5.41558 6.81145 5.43223C6.47258 5.44334 6.24916 5.82087 6.24171 6.36497C6.23799 6.67588 6.23799 6.67588 6.02573 6.67588C5.75018 6.67588 5.47834 6.67033 5.20279 6.67588C5.12459 6.67588 5.08735 6.65923 5.09107 6.52043C5.09852 5.94857 5.08735 5.37116 5.0948 4.79931C5.10969 3.86102 5.67943 3.08929 6.36087 3.08374C7.35139 3.08374 8.34563 3.08929 9.33987 3.08929Z" fill="#00A32E"/>
<path d="M15.2189 3.28978C14.8242 3.28978 14.4295 3.28978 14.0348 3.28978C13.7928 3.28978 13.6922 3.07325 13.7853 2.75124C14.0125 1.9573 14.2471 1.16336 14.4705 0.363877C14.5226 0.175109 14.6045 0.0862771 14.746 0.0918291C15.0551 0.102933 15.3679 0.102933 15.677 0.0918291C15.8147 0.0862771 15.9004 0.164005 15.9562 0.358325C16.1834 1.16336 16.418 1.96285 16.6489 2.76789C16.7345 3.07325 16.6377 3.29533 16.4143 3.29533C16.0158 3.28978 15.6174 3.28978 15.2189 3.28978Z" fill="#00A32E"/>
<path d="M15.4451 8.3484C15.2887 8.14852 15.1547 7.98196 15.0206 7.8154C14.9834 7.77099 14.9834 7.70992 14.9834 7.64884C14.9834 6.46627 14.9834 5.28369 14.9834 4.09557C14.9834 3.97898 15.002 3.94566 15.0839 3.94011C15.4451 3.92901 15.4451 3.92346 15.4451 4.46755C15.4451 5.74451 15.4451 7.02147 15.4451 8.3484Z" fill="#00A32E"/>
<path d="M4.18974 13.9213C4.41317 13.9213 4.63659 13.9269 4.85629 13.9213C4.93077 13.9213 4.95311 13.9491 4.94939 14.0601C4.94566 14.2655 4.94939 14.4765 4.94566 14.6819C4.94194 14.9151 4.86002 15.0428 4.70734 15.0428C4.35359 15.0484 4.00355 15.0484 3.6498 15.0428C3.50085 15.0428 3.4152 14.9207 3.4152 14.6986C3.41148 14.4821 3.41893 14.2711 3.41148 14.0546C3.40775 13.9435 3.43382 13.9158 3.50457 13.9158C3.73544 13.9269 3.96259 13.9213 4.18974 13.9213Z" fill="#00A32E"/>
<path d="M14.4636 13.9213C14.687 13.9213 14.9104 13.9269 15.1301 13.9213C15.2083 13.9213 15.2344 13.9491 15.2307 14.0712C15.2232 14.2767 15.2307 14.4876 15.227 14.6931C15.2232 14.9262 15.1413 15.0428 14.9849 15.0428C14.6386 15.0428 14.2886 15.0428 13.9423 15.0428C13.7859 15.0428 13.7002 14.9207 13.6965 14.6875C13.6928 14.471 13.7002 14.26 13.6928 14.0435C13.6891 13.9435 13.7114 13.9158 13.7784 13.9158C14.0093 13.9269 14.2364 13.9213 14.4636 13.9213Z" fill="#00A32E"/>
</g>
<defs>
<clipPath id="clip0_5569_129064">
<rect width="17.7615" height="14.9571" fill="white" transform="translate(0.49707 0.335693)"/>
</clipPath>
</defs>
</svg>
