<svg width="16" height="16" viewBox="0 0 16 16" fill="none" xmlns="http://www.w3.org/2000/svg">
<path d="M7.85681 10.6983C10.1074 10.6983 12.3581 10.6983 14.6047 10.6924C14.7401 10.6924 14.776 10.7399 14.772 10.9418C14.764 11.8089 14.768 12.6761 14.768 13.5432C14.768 13.9767 14.7122 14.0658 14.4214 14.0658C11.1829 14.0658 7.94445 14.0658 4.70595 14.0658C3.55873 14.0658 2.41151 14.0658 1.26429 14.0658C0.997405 14.0658 0.933671 13.9708 0.933671 13.5669C0.933671 12.6879 0.937654 11.803 0.929688 10.924C0.929688 10.7399 0.957571 10.6924 1.08504 10.6924C3.34761 10.7043 5.60221 10.6983 7.85681 10.6983Z" fill="#00A32E"/>
<path d="M1.0918 9.99848C1.62956 9.32736 2.15138 8.68593 2.65727 8.02669C2.83254 7.79506 3.00781 7.71191 3.24283 7.71191C6.38175 7.72379 9.52066 7.71785 12.6596 7.71785C12.7472 7.71785 12.8189 7.74161 12.8906 7.8307C13.4443 8.53151 13.998 9.22045 14.5557 9.91533C14.5716 9.93315 14.5915 9.94502 14.5915 9.99848C10.1022 9.99848 5.61295 9.99848 1.0918 9.99848Z" fill="#00A32E"/>
<path d="M7.87345 3.1866C8.92108 3.1866 9.96872 3.1866 11.0164 3.1866C11.7174 3.1866 12.2432 3.82803 12.3707 4.84362C12.4145 5.17621 12.3827 5.52068 12.3866 5.86515C12.3906 6.19774 12.3827 6.53033 12.3906 6.86292C12.3906 6.9817 12.3747 7.02922 12.2871 7.02922C11.9485 7.02328 11.6099 7.02328 11.2753 7.02922C11.1797 7.02922 11.1558 6.9817 11.1598 6.85104C11.1677 6.67881 11.1598 6.50657 11.1279 6.34622C11.0482 5.96017 10.8212 5.70479 10.5344 5.69885C10.0245 5.68697 9.51063 5.68697 9.00075 5.69885C8.62631 5.71073 8.37934 6.10865 8.37138 6.69069C8.36739 7.02328 8.36739 7.02328 8.14034 7.02328C7.91727 7.02328 7.6942 7.01734 7.47113 7.02328C7.37553 7.02922 7.33171 6.99952 7.34366 6.83916C7.35561 6.66693 7.34366 6.4947 7.31179 6.33434C7.23611 5.96611 7.01304 5.69885 6.74615 5.69291C6.22034 5.68104 5.69453 5.6751 5.16873 5.69291C4.80624 5.70479 4.56723 6.10865 4.55927 6.69069C4.55528 7.02328 4.55528 7.02328 4.32823 7.02328C4.03346 7.02328 3.74267 7.01734 3.4479 7.02328C3.36425 7.02328 3.32441 7.00546 3.3284 6.85698C3.33636 6.24525 3.32441 5.62758 3.33238 5.01585C3.34831 4.01214 3.95777 3.1866 4.68673 3.18066C5.74632 3.18066 6.80989 3.1866 7.87345 3.1866Z" fill="#00A32E"/>
<path d="M14.1621 3.40072C13.7399 3.40072 13.3176 3.40072 12.8954 3.40072C12.6365 3.40072 12.5289 3.1691 12.6285 2.82463C12.8715 1.97533 13.1225 1.12604 13.3615 0.270805C13.4172 0.0688747 13.5049 -0.0261513 13.6562 -0.0202122C13.9869 -0.00833391 14.3215 -0.00833391 14.6521 -0.0202122C14.7995 -0.0261513 14.8911 0.0569965 14.9508 0.264866C15.1938 1.12604 15.4448 1.98127 15.6918 2.84245C15.7834 3.1691 15.6798 3.40666 15.4408 3.40666C15.0146 3.40072 14.5884 3.40072 14.1621 3.40072Z" fill="#00A32E"/>
<path d="M14.4061 8.81149C14.2387 8.59768 14.0953 8.41951 13.9519 8.24134C13.9121 8.19382 13.9121 8.12849 13.9121 8.06316C13.9121 6.79813 13.9121 5.5331 13.9121 4.26212C13.9121 4.1374 13.932 4.10177 14.0197 4.09583C14.406 4.08395 14.4061 4.07801 14.4061 4.66005C14.4061 6.02604 14.4061 7.39204 14.4061 8.81149Z" fill="#00A32E"/>
<path d="M2.36415 14.7745C2.60315 14.7745 2.84216 14.7804 3.07718 14.7745C3.15685 14.7745 3.18075 14.8042 3.17676 14.923C3.17278 15.1427 3.17676 15.3684 3.17278 15.5882C3.1688 15.8376 3.08116 15.9742 2.91784 15.9742C2.53942 15.9801 2.16498 15.9801 1.78656 15.9742C1.62722 15.9742 1.5356 15.8435 1.5356 15.606C1.53162 15.3743 1.53959 15.1487 1.53162 14.917C1.52764 14.7983 1.55552 14.7686 1.6312 14.7686C1.87818 14.7804 2.12116 14.7745 2.36415 14.7745Z" fill="#00A32E"/>
<path d="M13.3543 14.7745C13.5933 14.7745 13.8323 14.7804 14.0673 14.7745C14.151 14.7745 14.1788 14.8042 14.1749 14.9348C14.1669 15.1546 14.1749 15.3803 14.1709 15.6C14.1669 15.8495 14.0793 15.9742 13.912 15.9742C13.5415 15.9742 13.1671 15.9742 12.7966 15.9742C12.6293 15.9742 12.5377 15.8435 12.5337 15.5941C12.5297 15.3625 12.5377 15.1368 12.5297 14.9052C12.5257 14.7982 12.5496 14.7686 12.6213 14.7686C12.8683 14.7804 13.1113 14.7745 13.3543 14.7745Z" fill="#00A32E"/>
</svg>
