<svg width="16" height="16" viewBox="0 0 16 16" fill="none" xmlns="http://www.w3.org/2000/svg">
<path d="M13.9296 12.2668V11.214C13.9296 10.6909 13.6111 10.2204 13.1254 10.0262L11.8243 9.50572C11.2066 9.25862 10.5025 9.52629 10.205 10.1214L10.0917 10.3478C10.0917 10.3478 8.49263 10.028 7.21334 8.74873C5.93406 7.46944 5.61423 5.87033 5.61423 5.87033L5.84068 5.75711C6.43578 5.45956 6.70345 4.75552 6.45635 4.13777L5.9359 2.83664C5.74163 2.35095 5.27122 2.03247 4.74811 2.03247H3.6953C2.98877 2.03247 2.41602 2.60523 2.41602 3.31176C2.41602 8.96401 6.99807 13.5461 12.6503 13.5461C13.3568 13.5461 13.9296 12.9733 13.9296 12.2668Z" fill="#00A32E"/>
</svg>
